# xmcd
#
# Track frame offsets: 
#        150
#        15425
#        33231
#        46204
#        97138
#        120210
#        140835
#        158322
#        183953
#        203704
#        223981
#        243887
#        266751
#        283030
#        300069
#        315366
#        334519
#
# Disc length: 4671 seconds
#
# Revision: 0
# Processed by: cddbd v1.5.2PL0 Copyright (c) Steve Scherf et al.
# Submitted via: ExactAudioCopy v0.99pb4
#
DISCID=da123d11
DTITLE=Jesse Colin Young - The Very Best Of Jesse Colin Young [2]
DYEAR=2005
DGENRE=Rock
TTITLE0=Eyes On The Prize
TTITLE1=Four In The Morning
TTITLE2=Sometimes (featuring the Youngbloods)
TTITLE3=Grey Day
TTITLE4=Workin'
TTITLE5=The Perfect Stranger
TTITLE6=Fight For It
TTITLE7=The Highway Is For Heroes
TTITLE8=Do It Slow
TTITLE9=Desire
TTITLE10=Swept Away
TTITLE11=Makin' It Real
TTITLE12=You Are The One
TTITLE13=Lovin' You
TTITLE14=Living In Paradise
TTITLE15=Imagine - What's Going On
TTITLE16=Sweet Good Times
EXTD=
EXTT0=
EXTT1=
EXTT2=
EXTT3=
EXTT4=
EXTT5=
EXTT6=
EXTT7=
EXTT8=
EXTT9=
EXTT10=
EXTT11=
EXTT12=
EXTT13=
EXTT14=
EXTT15=
EXTT16=
PLAYORDER=
